<svg xmlns="http://www.w3.org/2000/svg" viewBox="0 0 83.78 65.56">
    <defs>
        <style>
            .cls-1{fill:#3d62ad;}.cls-2{fill:#f8b500;}.cls-3{fill:#e62e8b;}.cls-4{fill:url(#linear-gradient);}.cls-5{fill:url(#linear-gradient-2);}.cls-6{fill:url(#linear-gradient-3);}.cls-7{fill:url(#linear-gradient-4);}
        </style>
        <linearGradient id="linear-gradient" x1="38.5" y1="14.61" x2="34.02" y2="24.23" gradientUnits="userSpaceOnUse">
            <stop offset="0" stop-color="#7d8cc5"/>
            <stop offset="0.09" stop-color="#6e82bf"/>
            <stop offset="0.29" stop-color="#5371b5"/>
            <stop offset="0.47" stop-color="#4366af"/>
            <stop offset="0.6" stop-color="#3d62ad"/>
        </linearGradient>
        <linearGradient id="linear-gradient-2" x1="40.36" y1="14.02" x2="54.81" y2="28.47"
                        gradientUnits="userSpaceOnUse">
            <stop offset="0" stop-color="#f095bc"/>
            <stop offset="0.05" stop-color="#ee85b4"/>
            <stop offset="0.18" stop-color="#eb5fa2"/>
            <stop offset="0.31" stop-color="#e84496"/>
            <stop offset="0.42" stop-color="#e7348e"/>
            <stop offset="0.5" stop-color="#e62e8b"/>
        </linearGradient>
        <linearGradient id="linear-gradient-3" x1="81.81" y1="5.3" x2="69.94" y2="12.15" gradientUnits="userSpaceOnUse">
            <stop offset="0" stop-color="#7d8cc5"/>
            <stop offset="0.05" stop-color="#6e82bf"/>
            <stop offset="0.17" stop-color="#5371b5"/>
            <stop offset="0.27" stop-color="#4366af"/>
            <stop offset="0.35" stop-color="#3d62ad"/>
        </linearGradient>
        <linearGradient id="linear-gradient-4" x1="48.57" y1="7.02" x2="64.18" y2="20.12"
                        gradientUnits="userSpaceOnUse">
            <stop offset="0" stop-color="#fdda8e"/>
            <stop offset="0.02" stop-color="#fdd887"/>
            <stop offset="0.13" stop-color="#fbcc57"/>
            <stop offset="0.24" stop-color="#fac231"/>
            <stop offset="0.34" stop-color="#f9bb16"/>
            <stop offset="0.43" stop-color="#f8b706"/>
            <stop offset="0.5" stop-color="#f8b500"/>
        </linearGradient>
    </defs>
    <g id="레이어_2" data-name="레이어 2">
        <path class="cls-1"
              d="M35.32,47.29H32.8v9.09h2.52v-4h2.57V50.55H35.32ZM26.48,62.5v-.22h8.84V57.44H23.89v1.71h8.88v1.46H23.93v1.22c0,2.84,1.54,3.72,3.86,3.72h7.64V63.84H27.8C26.73,63.84,26.48,63.44,26.48,62.5ZM30.3,51.77a4.57,4.57,0,0,0-4.76-4.34,4.36,4.36,0,1,0,0,8.69A4.56,4.56,0,0,0,30.3,51.77Zm-7.16,0a2.41,2.41,0,1,1,2.4,2.62A2.51,2.51,0,0,1,23.14,51.77Zm46.44,4.31v4.34h2.49V47.29H69.58v7C68.36,55.51,65.77,56,64,56s-3-.61-3-2.39V50H67V48.2H58.52v5.14c0,3.62,2.22,4.4,5.32,4.4A9.93,9.93,0,0,0,69.58,56.08ZM65,63.78a1.5,1.5,0,0,1-1.7-1.65V59.54H60.7v2c0,2.83,1.64,4,4.71,4h6.8V63.78ZM53.5,47.29H51V57.37A8.39,8.39,0,0,1,45.34,59c-1.63,0-3-.69-3-2.75v-1h5.83V48.38H39.83v1.77H45.7V53.5H39.83v2.13c0,3.9,2.12,5.17,5.33,5.17A10,10,0,0,0,51,59.14v6.42H53.5v-11h2.58V52.66H53.5Z"/>
        <path class="cls-2"
              d="M0,16.16C10.49,14.64,20.15,18,27.24,21.53a60.19,60.19,0,0,0-4.71-7.85C16.62,12.75,3.41,10.22,0,16.16Z"/>
        <path class="cls-1"
              d="M48.45,35.47c-.12-.35-.23-.71-.35-1.07s-.18-.54-.28-.82l-.33-1c-.1-.27-.19-.53-.29-.79l-.45-1.22c0-.12-.11-.25-.15-.37a12.57,12.57,0,0,1-2.74-.49A28.83,28.83,0,0,1,37,26.24l-1.41-.88c-2.35-1.44-4.9-3-8-4.53l-1-.46c.21.38.42.77.61,1.16,3.25,1.62,6,3.27,8,4.5A51.43,51.43,0,0,0,42.16,30,21.25,21.25,0,0,0,38,35.12a.72.72,0,0,0-.15.42c0,1.34,4.92,2.48,9.61,2.48.58,0,1.17,0,1.75-.05-.17-.6-.35-1.19-.53-1.79C48.6,36,48.52,35.71,48.45,35.47Z"/>
        <path class="cls-1"
              d="M36,14.21l.69-.14-.06,0,.43-.1c-.21-.22-.39-.46-.59-.68l-.62.13C31.15,14.4,29,14.59,25,14a18.35,18.35,0,0,1-2.43-.3c.21.3.4.6.6.89a16,16,0,0,0,1.74.19C29.06,15.38,31.34,15.17,36,14.21Z"/>
        <path class="cls-3"
              d="M56,27c-2.89,1.73-5.63,3.35-9.06,3.26l-.33,0c0,.12.09.25.14.37s.12.29.17.43h0c.1.26.19.53.29.79s.19.52.29.79l.33,1c.1.28.19.55.28.82s.23.72.35,1.07.15.48.22.71c.18.6.36,1.19.53,1.79,4.09-.24,7.86-1.26,7.86-2.43a.72.72,0,0,0-.15-.42,20.86,20.86,0,0,0-4.37-5.33,41.85,41.85,0,0,0,3.87-2.11c.63-.38,2.69-1.48,5-2.65-.19-.2-.4-.39-.6-.58C58.59,25.58,56.64,26.62,56,27Z"/>
        <path class="cls-3"
              d="M44.19,11.76l.58-.21L43.93,11a71.61,71.61,0,0,1-7.42,2.29c.2.22.39.46.59.68C38.57,13.65,40.94,12.9,44.19,11.76Z"/>
        <path class="cls-1"
              d="M79,1.35C75.61-.53,70.92-.76,67.89,2.67A7,7,0,0,0,67,11a6.48,6.48,0,0,0,7.43,2.74c2.67-.73,4.14-4,2.42-6.24a3.17,3.17,0,0,0-4.14-.8,1.53,1.53,0,0,0-.6,1.92,1.23,1.23,0,0,0,1.09.67,1.79,1.79,0,0,0,.65-.17c1.12-.4,1.62,1.32.7,1.83a2,2,0,0,1-.59.25,4.24,4.24,0,0,1-4.78-1.68,4.44,4.44,0,0,1,.63-5.09c1.86-2.1,5.27-2,7.57-.58s4.13,4.34,2.39,8.37c-1.4,3.25-5.55,4.18-9.65,4.19A20.45,20.45,0,0,1,68,16.33c.45.28.9.59,1.34.89l.8,0c5.48,0,9.06-1.62,10.38-4.66,1.93-4.51-.13-7.79-2.71-9.37S71.48,1.43,69.25,4a5.22,5.22,0,0,0-.7,6,5.06,5.06,0,0,0,5.64,2,2.78,2.78,0,0,0,.78-.33,1.73,1.73,0,0,0,.88-1.54,2,2,0,0,0-.18-.83,1.59,1.59,0,0,0-2-.88l-.16.05a.61.61,0,0,1-.23.07.43.43,0,0,1-.39-.24c-.2-.38.15-.77.36-.92A2.41,2.41,0,0,1,76.26,8a2.86,2.86,0,0,1,.4,2.7,3.58,3.58,0,0,1-2.4,2.3,5.69,5.69,0,0,1-6.56-2.4,6.22,6.22,0,0,1,.78-7.43C71.25.07,75.59.36,78.66,2a8.78,8.78,0,0,1,3.52,11.31,9.31,9.31,0,0,1-4.88,4.7,33.42,33.42,0,0,1-4,1.27l-.54.14-.11,0,.84.6a33.65,33.65,0,0,0,4.14-1.3,10.12,10.12,0,0,0,5.3-5.12A9.61,9.61,0,0,0,79,1.35Z"/>
        <path class="cls-2"
              d="M71.8,19.7a30,30,0,0,0-4,1.28c-1.72.73-5.34,2.58-6.82,3.35l-.24.12c.2.19.41.38.6.58,2.56-1.33,5.39-2.74,6.77-3.32a38,38,0,0,1,5.32-1.63l-.84-.6Z"/>
        <path class="cls-2"
              d="M47.23,10.67c4,1.65,13.79,5.67,20.7,6.44l1,.08.46,0c-.44-.3-.89-.61-1.34-.89-6.65-.74-16-4.52-20.76-6.51-.85.32-2,.75-3.32,1.2l.84.53Z"/>
        <path class="cls-4"
              d="M35.62,25.36l1.41.88a28.83,28.83,0,0,0,6.83,3.51,12.57,12.57,0,0,0,2.74.49c-.11-.29-.23-.57-.34-.85-.22-.54-.45-1.09-.68-1.63l-.3-.67q-.35-.78-.72-1.56c-.11-.25-.24-.49-.36-.73-.24-.49-.48-1-.74-1.46-.14-.27-.3-.54-.44-.82l-.74-1.32-.56-.91c-.24-.4-.48-.79-.73-1.17s-.47-.69-.7-1-.45-.67-.69-1-.61-.81-.92-1.21c-.19-.24-.37-.49-.57-.73-.33-.4-.67-.78-1-1.17l-.43.1.06,0-.69.14c-4.7,1-7,1.17-11.17.55a16,16,0,0,1-1.74-.19,56.15,56.15,0,0,1,3.5,5.8l1,.46C30.72,22.39,33.27,23.92,35.62,25.36Z"/>
        <path class="cls-5"
              d="M44.19,11.76C40.94,12.9,38.57,13.65,37.1,14c.34.39.69.77,1,1.17.2.24.38.49.57.73.31.4.63.8.92,1.21s.46.66.69,1,.47.68.7,1,.49.77.73,1.17l.56.91L43,22.52c.14.28.3.55.44.82.26.48.5,1,.74,1.46.12.24.25.48.36.73q.38.78.72,1.56l.3.67c.23.54.46,1.09.68,1.63.05.14.12.29.18.43h0c0,.14.1.28.16.42l.33,0c3.43.09,6.17-1.53,9.06-3.26.64-.38,2.59-1.42,4.77-2.55a101.13,101.13,0,0,0-16-12.9Z"/>
        <path class="cls-6"
              d="M72.73,19.46l.54-.14a33.42,33.42,0,0,0,4-1.27,9.31,9.31,0,0,0,4.88-4.7A8.78,8.78,0,0,0,78.66,2C75.59.36,71.25.07,68.48,3.19a6.22,6.22,0,0,0-.78,7.43A5.69,5.69,0,0,0,74.26,13a3.58,3.58,0,0,0,2.4-2.3,2.86,2.86,0,0,0-.4-2.7,2.41,2.41,0,0,0-3.06-.64c-.21.15-.56.54-.36.92a.43.43,0,0,0,.39.24.61.61,0,0,0,.23-.07l.16-.05a1.59,1.59,0,0,1,2,.88,2,2,0,0,1,.18.83A1.73,1.73,0,0,1,75,11.67a2.78,2.78,0,0,1-.78.33,5.06,5.06,0,0,1-5.64-2,5.22,5.22,0,0,1,.7-6c2.23-2.52,6.09-2.26,8.57-.74s4.64,4.86,2.71,9.37c-1.32,3-4.9,4.65-10.38,4.66l-.8,0c1.11.74,2.19,1.49,3.27,2.26Z"/>
        <path class="cls-2"
              d="M71.8,19.7l.82-.22c-1.08-.77-2.16-1.52-3.27-2.26l-.46,0C69.85,18,70.82,18.88,71.8,19.7Z"/>
        <path class="cls-7"
              d="M69.35,17.22l-.46,0-1-.08c-6.91-.77-16.71-4.79-20.7-6.44l-2.46.88a101.13,101.13,0,0,1,16,12.9l.24-.12c1.48-.77,5.1-2.62,6.82-3.35a30,30,0,0,1,4-1.28l.82-.22C71.54,18.71,70.46,18,69.35,17.22Z"/>
        <path class="cls-2"
              d="M47.25,3.44a2,2,0,0,0-2,2,6.8,6.8,0,0,0,2,4.37,6.79,6.79,0,0,0,2-4.37A2,2,0,0,0,47.25,3.44Z"/>
    </g>
</svg>