<svg xmlns="http://www.w3.org/2000/svg" viewBox="0 0 98.55 69.65"><defs><style>.cls-1{fill:#003477;}.cls-2{fill:#45b035;}</style></defs><g id="레이어_2" data-name="레이어 2"><g id="Signature"><path class="cls-1" d="M42.84,30.05a8.17,8.17,0,0,0-5.94,2.24,9.93,9.93,0,0,0-2.53,7.15,9.92,9.92,0,0,0,2.53,7.14,8.18,8.18,0,0,0,5.94,2.26,8.24,8.24,0,0,0,6-2.26,10,10,0,0,0,2.51-7.14,10,10,0,0,0-2.51-7.15,8.24,8.24,0,0,0-6-2.24m3.44,14.57h0a4.29,4.29,0,0,1-3.44,1.57,4.23,4.23,0,0,1-3.41-1.57,8.38,8.38,0,0,1-1.34-5.18,8.43,8.43,0,0,1,1.34-5.19,4.2,4.2,0,0,1,3.41-1.54,4.25,4.25,0,0,1,3.44,1.54,8.44,8.44,0,0,1,1.33,5.19A8.38,8.38,0,0,1,46.28,44.62Z"/><path class="cls-1" d="M89.27,32.29a9,9,0,0,0-11.92,0,10,10,0,0,0-2.51,7.15,10,10,0,0,0,2.51,7.14,9,9,0,0,0,11.92,0,10,10,0,0,0,2.51-7.14,10,10,0,0,0-2.51-7.15M86.74,44.62h0a4.52,4.52,0,0,1-6.85,0,8.45,8.45,0,0,1-1.34-5.18,8.5,8.5,0,0,1,1.34-5.19,4.58,4.58,0,0,1,6.85,0,8.44,8.44,0,0,1,1.33,5.19A8.38,8.38,0,0,1,86.74,44.62Z"/><path class="cls-1" d="M26,48.41a1.72,1.72,0,0,1-.45-1.26V40.64l6.08-10.19H27.45c.31.3.34.78,0,1.35l-3.29,5.71c-2.77-5-2.77-5.16-3.27-6.07-.39-.69-.73-1-1.46-1H16.12A6.91,6.91,0,0,1,17.2,32l4.86,8.6v6.56a1.67,1.67,0,0,1-.46,1.26Z"/><path class="cls-1" d="M57.11,48.41a1.64,1.64,0,0,0,.46-1.26V31.7a1.63,1.63,0,0,0-.46-1.25h6c2.86,0,5.35,1.38,5.35,4.05a4,4,0,0,1-1.84,3.44,4.86,4.86,0,0,1,3.3,4.59A5.58,5.58,0,0,1,67.71,47a7.11,7.11,0,0,1-4.65,1.46h-6m4-11.18a5.67,5.67,0,0,0,2.53-.31,1.92,1.92,0,0,0,1.23-1.86,2.17,2.17,0,0,0-2.32-2,4.67,4.67,0,0,0-1.44.18v4M65,45.39a2.86,2.86,0,0,0,1.27-2.64c0-2-1.73-2.87-3.4-2.87a12.94,12.94,0,0,0-1.76.1v5.76A5.72,5.72,0,0,0,65,45.39Z"/><path class="cls-1" d="M.46,47.15A1.67,1.67,0,0,1,0,48.41H4.39a1.72,1.72,0,0,1-.45-1.26v-7L9,47.42a1.72,1.72,0,0,0,1.58,1h3.52a8,8,0,0,1-1.27-1.54L7.12,38.72,13,30.45H8.67c.23.29.26.66-.16,1.37L3.94,38.4V31.7a1.71,1.71,0,0,1,.45-1.25H0A1.67,1.67,0,0,1,.46,31.7Z"/><path class="cls-2" d="M97.41,5.85a4.15,4.15,0,0,0-5.94.32c-2.08,2.18-3.7,3-5.62,2.91-2.69-.11-4-2.19-5.4-4.81S76.81,0,74.06,0c-4.32,0-6.91,3.5-6.91,7.4,0,6,4.22,9.6,7.14,11.12a17.55,17.55,0,0,0,7.54,1.85,22.88,22.88,0,0,1-1,4.67h4.94a22.49,22.49,0,0,1-1-4.83c7.25-.94,10.69-4.23,12.58-7.37a7.89,7.89,0,0,0,1.28-4.08,4,4,0,0,0-1.14-2.91M74.1,9.6a2.53,2.53,0,1,1,2.36-2.68A2.52,2.52,0,0,1,74.1,9.6Z"/><polygon class="cls-1" points="66.61 61.06 64.5 61.06 64.5 67.38 60.46 67.38 60.46 69.04 73 69.04 73 67.38 66.61 67.38 66.61 61.06"/><path class="cls-1" d="M69.43,65.78h1.38c.51-2.66.88-6,1.1-8.2.11-1.2.12-1.83-1-1.83H61.53v1.66h7.9Z"/><path class="cls-1" d="M48.29,61.19h9.17V55.7H47v4.18a1.15,1.15,0,0,0,1.31,1.31m6.81-3.84v2.19H49.34V57.35Z"/><path class="cls-1" d="M49.63,65.08H47.27v3.25a1.16,1.16,0,0,0,1.31,1.32h8.91V68H49.63Z"/><polygon class="cls-1" points="45.8 64 51.28 64 51.28 66.58 53.64 66.58 53.64 64 58.64 64 58.64 62.34 45.8 62.34 45.8 64"/><polygon class="cls-1" points="24.05 61.51 21.93 61.51 21.93 67.38 20.49 67.38 20.49 61.51 18.37 61.51 18.37 67.38 15.51 67.38 15.51 69.04 28.58 69.04 28.58 67.38 24.05 67.38 24.05 61.51"/><path class="cls-1" d="M25.24,65.78h1.38c.52-2.66.88-6,1.1-8.2.11-1.2.12-1.83-1-1.83H16.93v1.66h8.31Z"/><polygon class="cls-1" points="38.37 64.55 36.01 64.55 36.01 67.38 30.62 67.38 30.62 69.04 43.69 69.04 43.69 67.38 38.37 67.38 38.37 64.55"/><path class="cls-1" d="M33.76,63.66h6.78a1.16,1.16,0,0,0,1.31-1.31V55.62H39.49v2.72H34.81V55.62H32.45v6.73a1.15,1.15,0,0,0,1.31,1.31M39.49,60v2.24H34.81V60Z"/></g></g></svg>