<svg xmlns="http://www.w3.org/2000/svg" version="1.1" x="0px" y="0px" width="512px" height="189.621px"
     viewBox="0 0 135.46666 50.170558">
    <g>
        <g transform="matrix(1.0034568,0,0,1.0034568,-32.612346,-26.592507)">
            <polygon fill="#8C9FA9"
                     points="47.509,43.373 40.69,51.121 39.405,58.916 35.643,58.916 37.016,51.033 32.5,43.419 36.971,43.419 39.318,47.669 43.125,43.373"></polygon>
            <polygon fill="#8C9FA9"
                     points="46.801,59.004 55.656,58.959 56.1,55.816 51.227,55.816 51.67,52.716 56.498,52.805 57.072,49.571 52.204,49.571 52.735,46.606 57.826,46.606 58.224,43.373 49.237,43.373"></polygon>
            <path fill="#8C9FA9"
                  d="m 69.159,46.871 c 0,0 -0.042,-0.974 -2.522,-1.152 0,0 -1.859,0.045 -2.213,1.507 0,0 -0.619,1.992 2.966,2.522 0,0 2.924,0.621 2.924,3.851 0,0 -0.222,2.744 -2.082,4.074 0,0 -1.729,1.506 -4.737,1.551 0,0 -2.437,0.398 -5.314,-1.508 l 2.035,-3.056 c 0,0 1.508,2.169 3.721,1.683 0,0 2.036,-0.221 2.435,-2.122 0,0 0.486,-1.772 -3.101,-2.039 0,0 -3.1,-0.35 -2.966,-3.895 0,0 0.31,-2.924 1.992,-3.896 0,0 1.328,-1.371 4.118,-1.417 0,0 1.993,-0.31 4.606,1.24 z"></path>
            <path fill="#D71921"
                  d="m 85.986,29.912 c 0,0 0.752,-3.363 2.835,-3.408 0,0 2.786,-0.234 2.035,3.363 0,0 -1.007,3 -1.462,4.698 0,0 -0.828,2.646 -0.932,2.934 0,0 -0.209,1.022 -1.909,0.996 0,0 -2.25,0 -2.175,-2.331 0.301,-1.796 0.357,-1.768 0.656,-2.983 z"></path>
            <path fill="#D71921"
                  d="m 96.758,29.935 c 0,0 0.753,-3.368 2.835,-3.408 0,0 2.785,-0.235 2.038,3.361 0,0 -1.008,3 -1.462,4.696 0,0 -0.829,2.65 -0.934,2.937 0,0 -0.209,1.024 -1.91,0.998 0,0 -2.251,-0.003 -2.171,-2.331 0.298,-1.801 0.355,-1.768 0.653,-2.985 z"></path>
            <path fill="#231F20"
                  d="m 77.025,48.732 4.107,0.022 c 0,0 -0.34,-2.667 2.225,-2.667 0,0 1.756,-0.208 1.834,2.224 0,0 -0.025,1.861 -1.834,3.404 l -3.455,3.455 -4.633,4.107 h 12.094 0.523 l 0.234,-3.061 h -5.26 c 0,0 2.775,-2.277 3.849,-3.531 0,0 2.435,-1.887 2.33,-4.452 0,0 0.104,-1.938 -1.126,-3.481 0,0 -0.97,-1.73 -4.086,-1.704 0,0 -3.218,0.027 -4.868,2.198 10e-4,0 -1.099,1.414 -1.934,3.486 z"></path>
            <path fill="#8C9FA9"
                  d="m 108.316,57.523 c 0,0 0,-2.782 2.577,-2.731 0,0 1.962,-0.105 2.09,1.958 0,0 -0.311,2.578 -2.652,2.578 0,0 -1.732,0.129 -2.015,-1.805 z"></path>
            <path fill="#8C9FA9"
                  d="m 127.642,54.326 -0.722,4.305 c 0,0 -1.646,0.746 -3.785,0.721 0,0 -3.558,0 -5.62,-2.576 0,0 -1.518,-1.985 -1.547,-4.304 0,0 0.104,-4.301 2.966,-6.722 0,0 1.055,-1.187 2.73,-1.959 0,0 1.706,-0.901 3.505,-0.848 0,0 2.319,-0.075 3.915,1.027 l -0.538,3.688 c 0,0 -1.135,-1.47 -3.58,-1.47 0,0 -2.118,-0.024 -3.894,2.008 0,0 -1.546,1.599 -1.416,3.637 0,0 -0.209,1.904 1.184,3.115 0,0 0.646,0.697 2.734,0.824 0,-10e-4 3.243,0.126 4.068,-1.446 z"></path>
            <polygon fill="#8C9FA9"
                     points="147.788,58.992 151.346,58.969 154.488,49.587 156.913,58.969 158.327,58.969 163.892,49.459 163.892,58.992 167.475,58.992 167.5,43.329 163.869,43.329 158.949,52.061 156.731,43.355 153.355,43.355"></polygon>
            <path fill="#005AA9"
                  d="m 68.506,65.367 c 0,0 -1.411,-1.82 1.059,-3.113 0,0 1.703,-1.176 2.996,0.703 0,0 1.879,3.352 4.701,5.762 0,0 3.289,2.934 11.399,3.23 0,0 8.639,0.705 13.401,-3.701 0,0 2.465,-1.881 4.698,-5.76 0,0 1.234,-1.355 2.995,-0.059 0,0 1.882,1.354 0.118,3.703 0,0 -2.111,3.289 -6.051,6.287 0,0 -4.993,4.113 -15.043,4.055 0,0 -6.522,0.527 -12.75,-3.291 0.001,10e-4 -4.406,-2.056 -7.523,-7.816 z"></path>
            <path fill="#231F20"
                  d="m 101.596,53.195 1.52,-9.457 h -4.953 l -8.135,9.923 -0.386,2.47 h 7.652 l -0.36,3.273 h 3.656 l 0.388,-3.273 2.138,-0.049 0.361,-2.887 z m -3.722,0.043 -3.511,-0.043 4.858,-6.389 z"></path>
            <path fill="#8C9FA9"
                  d="m 147.741,49.151 c -0.185,-1.911 -1.162,-3.119 -1.162,-3.119 -1.467,-2.189 -3.761,-2.858 -3.761,-2.858 -2.628,-0.849 -5.153,0 -5.153,0 -3.528,0.643 -6.339,4.814 -6.339,4.814 -1.365,1.754 -1.365,4.537 -1.365,4.537 -0.024,2.578 1.856,4.508 1.856,4.508 1.7,2.578 5.896,2.295 5.896,2.295 3.173,-0.025 5.416,-1.598 5.416,-1.598 1.673,-1.08 3.271,-3.634 3.271,-3.634 1.653,-2.707 1.341,-4.945 1.341,-4.945 z m -5.721,5.047 c 0,0 -1.65,1.729 -3.814,1.729 0,0 -2.703,0.18 -3.813,-2.191 0,0 -0.335,-0.49 -0.386,-2.238 0,0 -0.075,-1.575 1.442,-3.453 0,0 1.729,-2.064 4.176,-1.935 0,0 2.396,0.025 3.633,1.878 0,0 0.593,1.084 0.617,2.247 -0.001,0 0.254,1.931 -1.855,3.963 z"></path>
        </g>
    </g>
</svg>